<?xml version="1.0" encoding="UTF-8" standalone="no"?>
<!-- Uploaded to: SVG Repo, www.svgrepo.com, Generator: SVG Repo Mixer Tools -->

<svg
   fill="#000000"
   version="1.1"
   id="Capa_1"
   width="800.0014"
   height="697.10724"
   viewBox="0 0 560.51698 488.4247"
   xml:space="preserve"
   sodipodi:docname="battery-uncharged-svgrepo-com.svg"
   xmlns:inkscape="http://www.inkscape.org/namespaces/inkscape"
   xmlns:sodipodi="http://sodipodi.sourceforge.net/DTD/sodipodi-0.dtd"
   xmlns="http://www.w3.org/2000/svg"
   xmlns:svg="http://www.w3.org/2000/svg"><defs
   id="defs21" /><sodipodi:namedview
   id="namedview19"
   pagecolor="#ffffff"
   bordercolor="#000000"
   borderopacity="0.25"
   inkscape:showpageshadow="2"
   inkscape:pageopacity="0.0"
   inkscape:pagecheckerboard="0"
   inkscape:deskcolor="#d1d1d1"
   showgrid="false" />
<g
   id="g16"
   style="fill:#ff0000"
   transform="translate(0,-36.04525)">
	<g
   id="g14"
   style="fill:#ff0000">
		<g
   id="g12"
   style="fill:#ff0000">
			<path
   d="m 391.041,199.935 c 15.896,0 28.823,12.934 28.823,28.833 V 336.83 l 37.684,37.683 V 228.77 c 0,-36.674 -29.838,-66.518 -66.509,-66.518 H 245.293 l 37.683,37.686 H 391.04 Z"
   id="path2"
   style="fill:#ff0000" />
			<path
   d="m 66.506,429.158 c -15.897,0 -28.823,-12.937 -28.823,-28.831 V 228.765 c 0,-15.899 12.926,-28.833 28.823,-28.833 H 96.469 L 59.494,162.97 C 26.155,166.521 0,194.505 0,228.768 V 400.33 c 0,36.671 29.835,66.513 66.506,66.513 H 363.36 l -37.674,-37.684 z"
   id="path4"
   style="fill:#ff0000" />
			<path
   d="m 65.584,246.542 v 136.011 c 0,11.424 9.273,20.697 20.71,20.697 h 35.612 c 11.434,0 20.708,-9.273 20.708,-20.697 V 246.542 c 0,-0.204 -0.11,-0.37 -0.118,-0.571 l -20.011,-20.019 c -0.204,0 -0.379,-0.112 -0.581,-0.112 h -35.61 c -11.437,-0.001 -20.71,9.273 -20.71,20.702 z"
   id="path6"
   style="fill:#ff0000" />
			<path
   d="m 530.032,213.991 -22.574,-8.74 c -4.003,-1.563 -8.501,-1.03 -12.044,1.399 -3.542,2.412 -5.657,6.42 -5.657,10.708 v 189.353 l 17.186,17.206 c 0.168,-0.073 0.352,0 0.517,-0.073 l 22.595,-8.742 c 18.362,-7.099 30.462,-24.766 30.462,-44.45 V 258.447 c -0.004,-19.69 -12.112,-37.353 -30.485,-44.456 z"
   id="path8"
   style="fill:#ff0000" />
			<path
   d="m 74.084,44.326 c -11.039,-11.041 -28.923,-11.041 -39.963,0 -11.041,11.041 -11.041,28.925 0,39.964 l 431.882,431.9 c 5.521,5.521 12.75,8.28 19.982,8.28 7.229,0 14.461,-2.761 19.98,-8.28 11.04,-11.041 11.04,-28.926 0,-39.964 z"
   id="path10"
   style="fill:#ff0000" />
		</g>
	</g>
</g>
</svg>
