<svg xmlns="http://www.w3.org/2000/svg" width="54" height="54" fill="none" viewBox="0 0 54 54">
  <path fill="#fff" d="M32.347 2.968h-1v.05l.005.05.995-.1Zm0 0h1v-.05l-.005-.05-.995.1Zm.525 5.25-.995.1.995-.1Zm.798 2.68.383-.924-.383.924Zm2.459-1.33-.634-.775.634.774Zm4.084-3.342.633.774-.633-.774Zm1.383-.798-.05.999.05-.999Zm1.297.932-.707.707.707-.707Zm4.747 4.747.708-.707-.708.707Zm.932 1.297.999-.05-.999.05Zm-.798 1.383.774.633-.774-.633Zm-3.342 4.085-.774-.634.774.634Zm-1.33 2.458-.924.383.924-.383Zm2.68.798-.1.995.1-.995Zm5.25.525.1-.995-.1.995Zm1.543.414-.742.671.742-.67Zm0 9.866-.742-.671.742.67Zm-1.543.414.1.995-.1-.995Zm-5.25.525.1.995-.1-.995Zm-2.679.798-.924-.383.924.383Zm1.33 2.458.774-.633-.773.633Zm3.341 4.084-.774.633.774-.633Zm.798 1.383.999.05-.999-.05Zm-6.976 6.976.05.999-.05-1Zm-1.383-.798-.633.774.633-.774Zm-4.084-3.342-.634.774.634-.774Zm-2.46-1.33-.382-.924.383.924Zm-.797 2.68-.995-.1.995.1Zm-.525 5.251.995.1-.995-.1Zm-.414 1.543-.671-.742.67.742Zm-9.866 0 .671-.742-.67.742Zm-.414-1.543-.995.1.995-.1Zm-.525-5.25.995-.1-.995.1Zm-.798-2.68.383-.924-.383.924Zm-2.458 1.33.633.774-.633-.774Zm-4.085 3.342L13.154 47l.633.774Zm-1.383.798-.05.999.05-.999Zm-1.297-.931-.707.707.707-.707ZM6.36 42.893l.707-.707-.707.707Zm-.932-1.297-.999.05.999-.05Zm.798-1.383-.774-.633.774.633Zm3.342-4.085-.774-.633.774.633Zm1.33-2.458.924-.383-.924.383Zm-2.68-.798-.099.995.1-.995Zm-5.25-.525.1-.995-.05-.005h-.05v1Zm0 0-.1.995.05.005h.05v-1Zm-1.543-.414.742-.671-.742.67Zm0-9.866.742.671-.742-.67Zm1.543-.414v-1h-.05l-.05.005.1.995Zm0 0v1h.05l.05-.005-.1-.995Zm5.252-.525.1.995-.1-.995Zm2.679-.798-.924-.382.924.382Zm-1.33-2.458-.774.633.773-.633Zm-3.343-4.086L7 13.153l-.774.633Zm-.798-1.383-.999-.05 1 .05Zm.932-1.298.707.708-.707-.708Zm4.747-4.747-.707-.707.707.707Zm1.297-.931.05.999-.05-1Zm1.383.798.634-.774-.634.774Zm4.085 3.341.633-.774-.633.774Zm2.459 1.33-.383-.923.383.924Zm.797-2.678.995.099-.995-.1Zm.525-5.25.995.1.005-.05v-.05h-1Zm0 0-.995-.1-.005.05v.05h1Zm.414-1.543.671.742-.67-.742Zm9.866 0-.671.742.67-.742Zm1.414 1.543h-2 2Zm.52 5.151-.525-5.25-1.99.198.525 5.251 1.99-.199Zm.186 1.855c.173.072.129.214.042-.133-.088-.348-.143-.871-.228-1.722l-1.99.199c.078.783.146 1.485.278 2.01.133.528.405 1.193 1.132 1.494l.766-1.848Zm1.442-1.18c-.661.54-1.07.872-1.378 1.056-.307.184-.238.052-.064.124l-.766 1.848c.727.3 1.39.024 1.856-.255.466-.279 1.01-.727 1.619-1.226l-1.267-1.548Zm4.084-3.342-4.084 3.341 1.267 1.548L40.846 7l-1.267-1.548Zm2.067-1.023c-.475-.023-.86.147-1.165.338-.282.176-.59.43-.902.685L40.846 7c.354-.29.546-.444.693-.536.123-.077.097-.033.007-.037l.1-1.998ZM43.6 5.652c-.285-.285-.565-.568-.828-.77-.286-.221-.651-.43-1.126-.453l-.1 1.998c-.09-.005-.11-.051.004.038.137.106.313.279.636.602L43.6 5.652Zm4.748 4.747L43.6 5.652l-1.414 1.415 4.747 4.747 1.415-1.415Zm1.223 1.955c-.024-.475-.232-.84-.452-1.126-.203-.263-.486-.543-.771-.829l-1.415 1.415c.323.323.496.499.602.636.089.115.043.094.038.004l1.998-.1Zm-1.023 2.067c.255-.313.51-.62.685-.902.191-.306.361-.69.338-1.165l-1.998.1c-.004-.09.04-.116-.037.007-.092.147-.247.34-.536.693l1.548 1.267Zm-3.342 4.084 3.342-4.084L47 13.154l-3.342 4.084 1.548 1.267Zm-1.18 1.443c.072.174-.06.242.124-.065.184-.308.515-.717 1.056-1.378l-1.548-1.267c-.498.61-.946 1.153-1.225 1.619-.279.467-.556 1.13-.255 1.856l1.848-.765Zm1.855.185c-.85-.085-1.374-.14-1.722-.227-.347-.088-.205-.132-.133.042l-1.848.765c.301.727.966 1 1.493 1.132.526.132 1.228.2 2.01.278l.2-1.99Zm5.25.525-5.25-.525-.2 1.99 5.252.525.199-1.99Zm2.185.738c-.319-.352-.711-.503-1.063-.585-.323-.075-.72-.113-1.121-.153l-.2 1.99c.456.046.7.072.87.111.141.033.092.046.031-.02l1.483-1.343Zm.517 2.247c0-.403.002-.802-.04-1.131-.046-.358-.158-.763-.477-1.116l-1.483 1.342c-.06-.066-.042-.114-.024.03.023.172.024.418.024.875h2Zm0 6.714v-6.714h-2v6.714h2Zm-.517 2.247c.32-.353.43-.758.477-1.116.042-.33.04-.728.04-1.131h-2c0 .457-.002.703-.024.875-.018.144-.036.096.024.03l1.483 1.342Zm-2.184.738c.401-.04.798-.078 1.122-.153.351-.082.743-.233 1.062-.585l-1.483-1.342c.06-.067.11-.054-.031-.021-.17.039-.414.065-.87.11l.2 1.99Zm-5.25.525 5.25-.525-.2-1.99-5.25.525.2 1.99Zm-1.855.185c-.072.174-.214.13.133.042.348-.087.871-.142 1.722-.227l-.2-1.99c-.782.078-1.484.146-2.01.278-.527.133-1.192.405-1.493 1.132l1.848.765Zm1.18 1.443c-.54-.661-.872-1.07-1.056-1.378-.184-.307-.052-.239-.124-.065l-1.848-.765c-.3.727-.024 1.39.255 1.856.279.465.727 1.01 1.226 1.619l1.547-1.267Zm3.341 4.083-3.34-4.083-1.548 1.267L47 40.844l1.548-1.267Zm1.023 2.067c.024-.475-.147-.86-.338-1.166-.176-.281-.43-.588-.685-.9L47 40.844c.29.353.444.546.536.693.077.123.033.097.037.007l1.998.1Zm-1.223 1.954c.285-.285.568-.565.77-.828.221-.286.43-.651.453-1.126l-1.998-.1c.005-.09.051-.11-.037.004-.106.137-.28.313-.602.636l1.414 1.414ZM43.6 48.346l4.747-4.747-1.414-1.414-4.748 4.747 1.415 1.414Zm-1.955 1.224c.475-.024.84-.232 1.126-.452.263-.203.543-.486.829-.772l-1.415-1.414c-.323.323-.498.496-.636.602-.114.089-.093.043-.003.038l.1 1.998Zm-2.066-1.023c.312.255.619.51.9.685.307.19.691.361 1.166.338l-.1-1.998c.09-.004.116.04-.007-.037-.147-.092-.34-.247-.693-.536l-1.266 1.548Zm-4.085-3.342 4.085 3.342 1.266-1.548-4.084-3.342-1.267 1.548Zm-1.442-1.18c-.174.072-.243-.06.064.124.308.184.717.515 1.378 1.056l1.267-1.548c-.61-.498-1.153-.946-1.619-1.225-.466-.279-1.13-.556-1.856-.255l.766 1.848Zm-.186 1.855c.085-.85.14-1.374.228-1.722.087-.347.132-.205-.042-.133l-.766-1.848c-.727.301-1 .966-1.132 1.493-.132.526-.2 1.228-.278 2.01l1.99.2Zm-.525 5.252.525-5.252-1.99-.2-.525 5.253 1.99.199Zm-.738 2.184c.352-.319.504-.711.585-1.063.075-.323.113-.72.153-1.121l-1.99-.2c-.046.455-.072.7-.111.87-.033.14-.046.092.02.031l1.343 1.483Zm-2.247.517c.403 0 .802.002 1.131-.04.358-.046.763-.158 1.116-.477l-1.342-1.483c.066-.06.114-.042-.03-.024-.172.022-.418.024-.875.024v2Zm-6.714 0h6.714v-2h-6.714v2Zm-2.247-.517c.353.32.758.43 1.116.477.33.042.728.04 1.131.04v-2c-.456 0-.703-.002-.875-.024-.144-.018-.096-.036-.03.024l-1.342 1.483Zm-.738-2.184c.04.401.078.798.153 1.122.082.35.233.743.585 1.062l1.342-1.483c.067.06.054.11.021-.031-.039-.17-.065-.415-.11-.87l-1.99.2Zm-.525-5.251.525 5.25 1.99-.198-.525-5.251-1.99.199Zm-.185-1.855c-.174-.072-.13-.214-.042.133.087.348.142.871.227 1.722l1.99-.2c-.078-.782-.146-1.484-.278-2.01-.133-.527-.405-1.192-1.132-1.493l-.765 1.848Zm-1.443 1.18c.662-.54 1.07-.872 1.378-1.056.307-.184.239-.052.065-.124l.765-1.848c-.727-.3-1.39-.024-1.856.255-.465.279-1.01.727-1.619 1.225l1.267 1.548Zm-4.084 3.342 4.084-3.342-1.267-1.548L13.154 47l1.267 1.548Zm-2.067 1.023c.475.023.86-.147 1.165-.338.282-.176.59-.43.902-.685L13.154 47c-.354.29-.546.444-.693.536-.123.077-.097.033-.007.037l-.1 1.998ZM10.4 48.348c.285.285.565.568.828.77.286.221.651.43 1.126.453l.1-1.998c.09.005.11.051-.004-.038-.137-.105-.313-.279-.636-.602l-1.415 1.415ZM5.651 43.6l4.747 4.748 1.415-1.415-4.747-4.747L5.652 43.6ZM4.43 41.646c.024.475.232.84.452 1.126.203.263.486.543.771.828l1.415-1.414c-.323-.323-.497-.499-.602-.636-.089-.115-.043-.094-.038-.004l-1.998.1Zm1.023-2.066c-.256.312-.51.619-.685.9-.191.307-.361.691-.338 1.166l1.998-.1c.004.09-.04.116.037-.007.092-.147.246-.34.536-.693L5.452 39.58Zm3.342-4.085L5.452 39.58 7 40.846l3.341-4.084-1.547-1.267Zm1.18-1.443c-.072-.173.06-.242-.124.065-.184.308-.515.717-1.056 1.378l1.547 1.267c.499-.61.947-1.154 1.226-1.619.279-.467.556-1.13.255-1.856l-1.848.765Zm-1.855-.185c.85.085 1.374.14 1.722.227.347.088.205.132.133-.042l1.848-.765c-.301-.727-.966-1-1.493-1.132-.526-.132-1.228-.2-2.01-.278l-.2 1.99Zm-5.25-.525 5.25.525.2-1.99-5.252-.525-.199 1.99Zm.099.005v-2 2Zm-2.284-.743c.319.352.711.503 1.063.585.323.075.72.113 1.121.153l.2-1.99c-.455-.046-.7-.072-.87-.111-.14-.033-.092-.046-.031.02L.684 32.605Zm-.517-2.247c0 .403-.002.802.04 1.13.046.359.158.764.477 1.117l1.483-1.342c.06.066.042.114.024-.03-.022-.172-.024-.418-.024-.875h-2Zm0-6.714v6.714h2v-6.714h-2Zm.517-2.247c-.32.353-.43.758-.477 1.116-.042.33-.04.728-.04 1.131h2c0-.457.002-.703.024-.875.018-.144.036-.096-.024-.03L.684 21.396Zm2.184-.738c-.401.04-.798.078-1.121.153-.352.082-.744.233-1.063.585l1.483 1.342c-.06.067-.11.054.031.021.17-.039.415-.065.87-.11l-.2-1.99Zm.1-.005v2-2Zm5.152-.52-5.252.525.2 1.99 5.251-.525-.199-1.99Zm1.855-.185c.072-.174.214-.13-.133-.043-.348.088-.871.143-1.722.228l.2 1.99c.782-.078 1.484-.146 2.01-.278.527-.133 1.192-.405 1.493-1.132l-1.848-.765Zm-1.18-1.443c.54.661.872 1.07 1.056 1.378.184.307.052.238.124.065l1.848.765c.3-.727.024-1.39-.255-1.856-.279-.466-.727-1.01-1.226-1.619l-1.547 1.267Zm-3.343-4.086 3.343 4.086 1.547-1.267L7 13.153l-1.548 1.266ZM4.43 12.353c-.023.475.147.859.338 1.165.176.282.43.59.685.901L7 13.153c-.29-.354-.444-.546-.536-.693-.077-.123-.033-.097-.037-.008l-1.998-.1Zm1.224-1.955c-.286.286-.569.566-.772.829-.22.285-.428.651-.452 1.126l1.998.1c-.005.09-.05.11.038-.004.106-.138.279-.313.602-.636l-1.414-1.415ZM10.4 5.651l-4.747 4.747 1.414 1.415 4.747-4.748L10.4 5.651Zm1.954-1.223c-.475.024-.84.232-1.126.452-.263.203-.543.486-.828.771l1.414 1.414c.323-.323.499-.496.636-.602.115-.088.094-.042.004-.037l-.1-1.998Zm2.067 1.023c-.313-.256-.62-.51-.902-.685-.306-.191-.69-.362-1.165-.338l.1 1.998c-.09.004-.116-.04.007.037.147.092.34.246.693.536l1.267-1.548Zm4.084 3.341-4.084-3.341-1.267 1.548 4.084 3.341 1.267-1.548Zm1.443 1.18c.174-.071.242.06-.064-.123-.308-.184-.717-.515-1.379-1.057l-1.267 1.548c.61.499 1.154.947 1.62 1.226.466.279 1.128.556 1.855.255l-.765-1.848Zm.185-1.854c-.085.85-.14 1.374-.227 1.722-.087.347-.132.205.042.133l.765 1.848c.727-.301 1-.966 1.132-1.493.133-.526.2-1.228.278-2.011l-1.99-.199Zm.525-5.25-.525 5.25 1.99.199.525-5.25-1.99-.199Zm-.005.1h2-2Zm.743-2.284c-.352.319-.503.711-.585 1.063-.075.323-.113.72-.153 1.121l1.99.2c.046-.455.072-.7.111-.87.033-.14.046-.092-.02-.031L21.395.684Zm2.247-.517c-.403 0-.801-.002-1.13.04-.359.046-.764.158-1.117.477l1.342 1.483c-.066.06-.114.042.03.024.172-.022.419-.024.875-.024v-2Zm6.714 0h-6.714v2h6.714v-2Zm2.247.517c-.353-.32-.758-.43-1.116-.477-.33-.042-.728-.04-1.131-.04v2c.457 0 .703.002.875.024.144.018.096.036.03-.024L32.604.684Zm.738 2.184c-.04-.401-.078-.798-.153-1.121-.081-.352-.233-.744-.585-1.063l-1.342 1.483c-.067-.06-.054-.11-.021.031.039.17.065.415.11.87l1.99-.2ZM36.333 27A9.333 9.333 0 0 1 27 36.333v2c6.26 0 11.333-5.074 11.333-11.333h-2ZM27 17.667A9.333 9.333 0 0 1 36.333 27h2c0-6.26-5.074-11.333-11.333-11.333v2ZM17.667 27A9.333 9.333 0 0 1 27 17.667v-2c-6.26 0-11.333 5.074-11.333 11.333h2ZM27 36.333A9.333 9.333 0 0 1 17.667 27h-2c0 6.26 5.074 11.333 11.333 11.333v-2Z"/>
</svg>
