<?xml version="1.0" encoding="UTF-8" standalone="no"?>
<!-- Uploaded to: SVG Repo, www.svgrepo.com, Generator: SVG Repo Mixer Tools -->

<svg
   fill="#000000"
   height="799.99689"
   width="799.9953"
   version="1.1"
   id="Layer_1"
   viewBox="0 0 511.99799 511.99901"
   xml:space="preserve"
   sodipodi:docname="industrial-machine.svg"
   xmlns:inkscape="http://www.inkscape.org/namespaces/inkscape"
   xmlns:sodipodi="http://sodipodi.sourceforge.net/DTD/sodipodi-0.dtd"
   xmlns="http://www.w3.org/2000/svg"
   xmlns:svg="http://www.w3.org/2000/svg"><defs
   id="defs31" /><sodipodi:namedview
   id="namedview29"
   pagecolor="#ffffff"
   bordercolor="#000000"
   borderopacity="0.25"
   inkscape:showpageshadow="2"
   inkscape:pageopacity="0.0"
   inkscape:pagecheckerboard="0"
   inkscape:deskcolor="#d1d1d1"
   showgrid="false" />
<path
   d="m 56.769986,268.98 h -13.474 c -4.466,0 -8.084,3.619 -8.084,8.084 0,4.465 3.618,8.084 8.084,8.084 h 13.474 c 4.466,0 8.084,-3.619 8.084,-8.084 0,-4.465 -3.618,-8.084 -8.084,-8.084 z"
   id="path2"
   style="fill:#ffffff" /><path
   d="m 234.37599,268.98 h -29.601 c -4.466,0 -8.084,3.619 -8.084,8.084 0,4.465 3.618,8.084 8.084,8.084 h 29.601 c 4.466,0 8.084,-3.619 8.084,-8.084 0,-4.465 -3.618,-8.084 -8.084,-8.084 z"
   id="path4"
   style="fill:#ffffff" /><path
   d="m 175.17499,268.98 h -29.601 c -4.466,0 -8.084,3.619 -8.084,8.084 0,4.465 3.618,8.084 8.084,8.084 h 29.601 c 4.466,0 8.084,-3.619 8.084,-8.084 0,-4.465 -3.619,-8.084 -8.084,-8.084 z"
   id="path6"
   style="fill:#ffffff" /><path
   d="M 115.97199,268.98 H 86.370986 c -4.466,0 -8.084,3.619 -8.084,8.084 0,4.465 3.619,8.084 8.084,8.084 h 29.601004 c 4.466,0 8.084,-3.619 8.084,-8.084 0,-4.465 -3.618,-8.084 -8.084,-8.084 z"
   id="path8"
   style="fill:#ffffff" /><path
   d="m 503.91499,30.338 h -21.768 l -14.921,-26.2479999 c -1.437,-2.529 -4.121,-4.090000000582424 -7.029,-4.090000000582424 h -139.029 c -2.907,0 -5.592,1.561000000582424 -7.029,4.090000000582424 L 299.21799,30.34 h -21.768 c -4.466,0 -8.084,3.618 -8.084,8.084 v 197.759 h -25.212 c 0.177,-1.051 0.291,-2.122 0.291,-3.223 v -64.437 c 0,-4.466 -3.618,-8.084 -8.084,-8.084 -4.466,0 -8.084,3.618 -8.084,8.084 v 64.437 c 0,1.776 -1.447,3.223 -3.223,3.223 h -51.162 v -18.505 c 0,-4.466 -3.618,-8.084 -8.084,-8.084 h -49.002 c -4.466,0 -8.084,3.619 -8.084,8.084 v 18.505 H 57.558986 c -1.776,0 -3.223,-1.447 -3.223,-3.223 V 118.934 c 0,-1.776 1.447,-3.223 3.223,-3.223 h 51.160004 v 53.166 c 0,3.099 1.771,5.925 4.561,7.276 1.119,0.542 2.324,0.808 3.523,0.808 1.786,0 3.559,-0.592 5.013,-1.742 l 19.49,-15.404 19.485,15.404 c 2.433,1.922 5.747,2.284 8.537,0.933 2.79,-1.351 4.561,-4.177 4.561,-7.276 V 115.71 h 51.162 c 1.776,0 3.223,1.447 3.223,3.223 v 22.648 c 0,4.466 3.618,8.084 8.084,8.084 4.466,0 8.084,-3.619 8.084,-8.084 v -22.648 c 0,-10.693 -8.699,-19.391 -19.391,-19.391 h -59.247 -49.002 -59.243004 c -10.693,0 -19.391,8.699 -19.391,19.391 v 114.025 c 0,1.121 0.116,2.213 0.3,3.282 -21.402,1.131 -38.468000071252,18.897 -38.468000071252,40.575 v 0.499 c 0,22.405 18.229000071252,40.633 40.636000071252,40.633 h 5.235 l 14.921,26.25 c 1.437,2.529 4.121,4.09 7.028,4.09 h 9.316 v 142.119 c 0,11.906 9.687,21.593 21.594,21.593 h 3.320004 c 11.906,0 21.594,-9.687 21.594,-21.593 v -29.925 h 341.848 v 29.925 c 0,11.906 9.687,21.593 21.593,21.593 h 3.32 c 11.906,0 21.593,-9.687 21.593,-21.593 V 340.203 38.423 c 0.002,-4.465 -3.617,-8.085 -8.083,-8.085 z m -379.027,85.373 h 32.834 v 36.471 l -11.401,-9.012 c -2.937,-2.321 -7.087,-2.322 -10.027,0 l -11.406,9.014 z m 200.983,-99.543 h 129.623 l 8.055,14.17 h -145.732 z m -200.983,209.593 h 32.834 v 10.421 h -32.834 z M 50.573986,301.78 h -9.939 c -13.491,0 -24.467,-10.975 -24.467,-24.466 v -0.499 c 0,-13.491 10.976,-24.465 24.467,-24.465 h 16.924 59.244004 49.002 59.246 44.313 v 16.63 h -5.389 c -4.466,0 -8.084,3.618 -8.084,8.084 0,4.466 3.618,8.084 8.084,8.084 h 5.389 v 16.632 z m 56.901004,87.764 v 100.863 c 0,2.991 -2.434,5.425 -5.425,5.425 h -3.320004 c -2.991,0 -5.425,-2.434 -5.425,-5.425 v -142.12 h 14.170004 z m 8.085,-57.425 h -30.339004 -12.697 l -8.054,-14.17 H 269.36599 v 14.17 h -104.468 z m 29.822,16.168 -21.738,21.739 v -21.739 z m 320.11,65.688 h -24.253 c -4.466,0 -8.084,3.618 -8.084,8.084 0,4.466 3.619,8.084 8.084,8.084 h 24.253 v 14.17 h -340.604 v -14.17 h 289.404 c 4.466,0 8.084,-3.618 8.084,-8.084 0,-4.466 -3.618,-8.084 -8.084,-8.084 h -290.648 v -21.083 l 44.603,-44.605 h 109.203 143.438 l 44.603,44.605 v 21.083 z m 0,-43.949 -21.738,-21.739 h 21.738 z m 30.339,120.381 c 0,2.991 -2.434,5.425 -5.425,5.425 h -3.32 c -2.991,0 -5.425,-2.434 -5.425,-5.425 V 452.398 422.06 389.545 348.289 h 14.17 z m 0,-158.288 h -22.255 -49.339 -138.703 V 309.865 244.268 46.507 h 18.388 173.522 18.388 v 285.612 z"
   id="path10"
   style="fill:#ffffff" /><path
   d="m 324.92799,184.03 h 87.208 c 4.466,0 8.084,-3.618 8.084,-8.084 0,-4.466 -3.619,-8.084 -8.084,-8.084 h -87.208 c -1.985,0 -3.6,-1.615 -3.6,-3.6 V 87.96 c 0,-1.985 1.615,-3.6 3.6,-3.6 h 131.512 c 1.986,0 3.6,1.615 3.6,3.6 v 76.302 c 0,1.986 -1.615,3.6 -3.6,3.6 h -16.278 c -4.466,0 -8.084,3.618 -8.084,8.084 0,4.466 3.618,8.084 8.084,8.084 h 16.278 c 10.9,0 19.769,-8.869 19.769,-19.769 V 87.96 c 0,-10.9 -8.868,-19.769 -19.769,-19.769 h -131.512 c -10.9,0 -19.769,8.869 -19.769,19.769 v 76.302 c 0,10.9 8.869,19.768 19.769,19.768 z"
   id="path12"
   style="fill:#ffffff" /><path
   d="m 313.24299,218.215 h 154.88 c 4.466,0 8.084,-3.618 8.084,-8.084 0,-4.466 -3.619,-8.084 -8.084,-8.084 h -154.88 c -4.466,0 -8.084,3.618 -8.084,8.084 0,4.466 3.62,8.084 8.084,8.084 z"
   id="path14"
   style="fill:#ffffff" /><path
   d="m 476.20799,244.266 c 0,-4.466 -3.619,-8.084 -8.084,-8.084 h -154.88 c -4.466,0 -8.084,3.618 -8.084,8.084 0,4.466 3.62,8.084 8.084,8.084 h 154.88 c 4.466,0 8.084,-3.618 8.084,-8.084 z"
   id="path16"
   style="fill:#ffffff" /><path
   d="m 399.20099,268.519 c -13.372,0 -24.253,10.88 -24.253,24.253 0,13.373 10.88,24.253 24.253,24.253 13.373,0 24.253,-10.88 24.253,-24.253 0,-13.373 -10.879,-24.253 -24.253,-24.253 z m 0,32.337 c -4.458,0 -8.084,-3.626 -8.084,-8.084 0,-4.458 3.626,-8.084 8.084,-8.084 4.458,0 8.084,3.626 8.084,8.084 0,4.457 -3.626,8.084 -8.084,8.084 z"
   id="path18"
   style="fill:#ffffff" /><path
   d="m 455.46099,268.519 c -13.372,0 -24.253,10.88 -24.253,24.253 0,13.373 10.88,24.253 24.253,24.253 13.373,0 24.253,-10.88 24.253,-24.253 0,-13.373 -10.881,-24.253 -24.253,-24.253 z m 0,32.337 c -4.458,0 -8.084,-3.626 -8.084,-8.084 0,-4.458 3.626,-8.084 8.084,-8.084 4.458,0 8.084,3.626 8.084,8.084 0,4.457 -3.626,8.084 -8.084,8.084 z"
   id="path20"
   style="fill:#ffffff" />
</svg>
