<svg xmlns="http://www.w3.org/2000/svg" width="58" height="58" fill="none" viewBox="0 0 58 58">
  <path fill="#fff" d="M32.625 30.439h-1.208c0 .466.268.891.69 1.091l.518-1.091Zm-7.25 0 .518 1.091c.422-.2.69-.625.69-1.091h-1.208ZM31.417 11.5v18.939h2.416V11.5h-2.416ZM29 9.083a2.417 2.417 0 0 1 2.417 2.417h2.416A4.833 4.833 0 0 0 29 6.667v2.416ZM26.583 11.5A2.417 2.417 0 0 1 29 9.083V6.667a4.833 4.833 0 0 0-4.833 4.833h2.416Zm0 18.939V11.5h-2.416v18.939h2.416Zm-4.833 7.644a7.25 7.25 0 0 1 4.143-6.553l-1.037-2.183a9.667 9.667 0 0 0-5.523 8.736h2.417Zm7.25 7.25a7.25 7.25 0 0 1-7.25-7.25h-2.417A9.667 9.667 0 0 0 29 47.75v-2.417Zm7.25-7.25a7.25 7.25 0 0 1-7.25 7.25v2.417a9.667 9.667 0 0 0 9.667-9.667H36.25Zm-4.144-6.553a7.25 7.25 0 0 1 4.144 6.553h2.417a9.668 9.668 0 0 0-5.523-8.735l-1.038 2.182Z"/>
  <path stroke="#fff" stroke-linecap="round" stroke-linejoin="round" stroke-width="2.417" d="M29 39.292v-4.834m8.458-4.25h4.834m-4.834-4.833h4.834m-4.834-4.833h4.834m-4.834-4.834h9.667"/>
  <path fill="#fff" d="m20.693 25.346.535.535.534-.535-.534-.534-.535.534ZM6 24.59a.756.756 0 1 0 0 1.513V24.59Zm7.881 8.638 7.347-7.347-1.07-1.07-7.346 7.347 1.07 1.07Zm7.347-8.416-7.347-7.347-1.07 1.07 7.347 7.346 1.07-1.07Zm-.535-.222H6v1.513h14.693V24.59Z"/>
</svg>
