<?xml version="1.0" encoding="UTF-8" standalone="no"?>
<!-- Uploaded to: SVG Repo, www.svgrepo.com, Generator: SVG Repo Mixer Tools -->

<svg
   width="799.93781"
   height="700.39062"
   viewBox="0 0 15.998756 14.007812"
   version="1.1"
   id="svg8"
   sodipodi:docname="network-wireless-offline-svgrepo-com.svg"
   xmlns:inkscape="http://www.inkscape.org/namespaces/inkscape"
   xmlns:sodipodi="http://sodipodi.sourceforge.net/DTD/sodipodi-0.dtd"
   xmlns="http://www.w3.org/2000/svg"
   xmlns:svg="http://www.w3.org/2000/svg">
  <defs
     id="defs12" />
  <sodipodi:namedview
     id="namedview10"
     pagecolor="#ffffff"
     bordercolor="#000000"
     borderopacity="0.25"
     inkscape:showpageshadow="2"
     inkscape:pageopacity="0.0"
     inkscape:pagecheckerboard="0"
     inkscape:deskcolor="#d1d1d1"
     showgrid="false" />
  <path
     d="M 7.9987581,0 C 5.3815701,0 2.7604771,0.93359301 0.80344609,2.808593 l -0.496094,0.480469 c -0.398438,0.378906 -0.410156,1.011719 -0.03125,1.410156 0.382812,0.398438 1.01562501,0.410156 1.41406201,0.027344 l 0.5,-0.476562 c 3.085938,-2.953126 8.5312499,-2.953126 11.6171879,0 l 0.5,0.476562 c 0.398437,0.382812 1.03125,0.371094 1.414062,-0.027344 0.378906,-0.398437 0.367188,-1.03125 -0.03125,-1.410156 L 15.19407,2.808593 C 13.237039,0.93359301 10.615946,0 7.9987581,0 Z m -0.03125,4.007812 c -1.570312,0.011719 -3.128906,0.628906 -4.207031,1.8125 l -0.5,0.550781 c -0.375,0.40625 -0.347657,1.042969 0.0625,1.414063 0.410156,0.371094 1.042969,0.339844 1.414062,-0.070313 l 0.5,-0.542969 c 1.242188,-1.363281 3.992188,-1.492187 5.3984379,-0.128906 0.121093,-0.023437 0.242187,-0.035156 0.363281,-0.035156 0.53125,0 1.039062,0.210938 1.414062,0.585938 l 0.222657,0.222656 c 0.01172,-0.011719 0.02344,-0.019532 0.03906,-0.03125 0.40625,-0.371094 0.4375,-1.007813 0.0625,-1.414063 l -0.5,-0.550781 C 11.112039,4.589843 9.5339141,3.996093 7.9675081,4.007812 Z m 0.03125,4 c -0.511719,0 -1.023438,0.195312 -1.414062,0.585938 -0.78125,0.78125 -0.78125,2.046874 0,2.828124 0.78125,0.78125 2.046874,0.78125 2.828124,0 0.210938,-0.210937 0.359376,-0.453124 0.457032,-0.714843 L 9.5846961,10.421874 C 9.0300081,9.8671869 8.8776641,9.054687 9.1159461,8.351562 8.7800081,8.125 8.3893831,8.007812 7.9987581,8.007812 Z m 0,0"
     fill-opacity="0.34902"
     id="path2"
     style="fill:#ffffff;fill-opacity:1" />
  <path
     d="m 10.998758,8.007812 c -0.265625,0 -0.519531,0.105469 -0.707031,0.292969 -0.3906249,0.390625 -0.3906249,1.023437 0,1.414062 l 1.292969,1.292969 -1.292969,1.292969 c -0.3906249,0.390625 -0.3906249,1.023437 0,1.414062 0.390625,0.390625 1.023437,0.390625 1.414062,0 l 1.292969,-1.292969 1.292969,1.292969 c 0.390625,0.390625 1.023437,0.390625 1.414062,0 0.390625,-0.390625 0.390625,-1.023437 0,-1.414062 L 14.41282,11.007812 15.705789,9.714843 c 0.390625,-0.390625 0.390625,-1.023437 0,-1.414062 -0.1875,-0.1875 -0.441406,-0.292969 -0.707031,-0.292969 -0.265625,0 -0.519531,0.105469 -0.707031,0.292969 L 12.998758,9.59375 11.705789,8.300781 c -0.1875,-0.1875 -0.441406,-0.292969 -0.707031,-0.292969 z m 0,0"
     id="path4"
     style="fill:#ffffff"
     inkscape:export-filename="offline.svg"
     inkscape:export-xdpi="96"
     inkscape:export-ydpi="96" />
</svg>
